<?xml version="1.0" standalone="no"?>
<!DOCTYPE svg PUBLIC "-//W3C//DTD SVG 20010904//EN"
 "http://www.w3.org/TR/2001/REC-SVG-20010904/DTD/svg10.dtd">
<svg version="1.0" xmlns="http://www.w3.org/2000/svg"
 width="539.000000pt" height="329.000000pt" viewBox="0 0 539.000000 329.000000"
 preserveAspectRatio="xMidYMid meet">

<g transform="translate(0.000000,329.000000) scale(0.100000,-0.100000)"
fill="#000000" stroke="none">
<path d="M260 3044 c-19 -10 -21 -14 -7 -14 14 0 17 -9 17 -44 0 -34 -4 -46
-17 -49 -10 -3 2 -5 26 -6 40 -1 43 0 26 12 -14 11 -17 23 -13 65 5 56 5 57
-32 36z"/>
<path d="M98 3039 c16 -18 16 -146 0 -152 -7 -3 5 -6 27 -6 32 0 36 2 23 10
-27 15 -22 39 7 39 29 0 65 32 65 58 0 28 -29 62 -53 61 l-22 0 23 -9 c39 -16
26 -106 -14 -98 -15 3 -19 13 -20 53 -1 45 -3 50 -25 53 -19 3 -22 1 -11 -9z"/>
<path d="M99 2751 c-39 -40 -39 -82 0 -122 31 -31 75 -38 111 -19 16 9 89 -40
462 -306 244 -174 458 -327 476 -341 l33 -24 -473 -340 c-361 -259 -478 -338
-493 -333 -63 19 -84 16 -115 -14 -38 -39 -40 -79 -4 -121 20 -25 34 -31 64
-31 55 0 83 26 89 86 l6 48 465 332 465 333 5 -137 5 -137 148 -3 147 -3 0
-240 0 -240 -35 -33 c-37 -35 -45 -69 -23 -109 18 -34 39 -46 81 -47 53 0 87
35 87 89 0 34 -5 45 -35 68 l-35 28 0 243 0 242 150 0 150 0 0 150 0 150 275
0 275 0 0 -55 c0 -30 4 -55 8 -55 19 0 324 128 316 133 -12 7 -313 127 -319
127 -3 0 -5 -25 -5 -55 l0 -55 -275 0 -274 0 -3 148 -3 147 -315 0 -315 0 -5
-138 -5 -138 -247 176 c-237 169 -247 177 -238 201 12 31 12 37 1 30 -11 -7
-25 49 -16 64 4 6 -4 10 -18 10 l-25 0 19 -51 c11 -28 19 -55 17 -59 -2 -4
-98 60 -215 144 l-212 151 0 43 c-2 86 -91 123 -152 63z m1699 -813 l-3 -283
-282 -3 -283 -2 0 285 0 285 285 0 285 0 -2 -282z"/>
<path d="M1360 2098 c0 -7 37 -50 82 -95 l83 -83 -83 -83 c-45 -45 -82 -88
-82 -95 0 -9 38 -12 150 -12 l150 0 0 55 c0 30 -4 55 -8 55 -5 0 -21 -13 -37
-30 -27 -28 -33 -30 -109 -30 l-81 0 80 80 80 80 -75 75 -74 75 90 0 90 0 11
-30 c16 -42 33 -37 33 10 l0 40 -150 0 c-112 0 -150 -3 -150 -12z"/>
<path d="M850 2454 c-19 -10 -21 -14 -7 -14 14 0 17 -9 17 -44 0 -34 -4 -46
-17 -49 -10 -3 2 -5 26 -6 40 -1 43 0 26 12 -14 11 -17 23 -13 65 5 56 5 57
-32 36z"/>
<path d="M721 2437 c-13 -34 -14 -47 -2 -28 7 11 14 5 27 -28 19 -47 26 -45
44 14 7 22 17 46 23 53 7 9 4 12 -11 12 -14 0 -19 -5 -16 -18 3 -9 1 -28 -4
-42 -9 -24 -10 -23 -29 20 l-20 45 -12 -28z"/>
<path d="M5163 2403 c-27 -5 -73 -47 -73 -66 0 -22 27 -39 49 -32 14 4 21 16
23 43 3 33 6 37 34 40 42 4 66 -25 62 -75 -3 -37 -4 -38 -68 -61 -36 -13 -75
-33 -87 -44 -30 -28 -31 -87 -3 -113 16 -14 20 -31 20 -77 l0 -58 -270 0 -269
0 -3 148 -3 147 -315 0 -315 0 0 -315 0 -315 318 -3 317 -2 0 150 0 150 270 0
270 0 0 -55 c0 -39 4 -55 13 -55 7 0 67 22 133 48 113 46 119 50 122 79 3 31
2 31 -118 79 l-121 48 41 12 c22 7 47 17 55 24 11 9 18 7 34 -9 22 -22 40 -25
79 -15 27 8 29 24 2 24 -33 0 -43 36 -36 122 9 108 -4 155 -49 174 -33 14 -67
16 -112 7z m95 -205 c-3 -55 -6 -64 -29 -77 -56 -31 -109 18 -79 74 11 21 79
63 103 65 4 0 7 -28 5 -62z m-710 -260 l-3 -283 -282 -3 -283 -2 0 285 0 285
285 0 285 0 -2 -282z"/>
<path d="M4306 2117 c-13 -13 -29 -40 -37 -60 -10 -29 -19 -37 -39 -38 -23 -2
-23 -2 -2 -6 12 -2 22 -10 22 -17 0 -22 -40 -200 -51 -228 -12 -30 -39 -38
-39 -13 0 8 -7 15 -15 15 -8 0 -15 -9 -15 -20 0 -15 7 -20 26 -20 56 0 79 34
109 167 8 37 17 78 20 91 4 16 13 22 33 23 23 2 24 2 5 6 -27 5 -29 28 -9 78
16 38 46 48 46 15 0 -11 7 -20 15 -20 20 0 19 36 -1 44 -28 11 -44 7 -68 -17z"/>
<path d="M3580 2021 l0 -61 -290 0 c-251 0 -290 -2 -290 -15 0 -13 39 -15 290
-15 l290 0 0 -61 c0 -45 3 -60 13 -56 159 62 316 132 310 137 -6 6 -100 44
-310 127 -10 4 -13 -11 -13 -56z"/>
<path d="M2738 2053 c-31 -5 -37 -18 -13 -27 12 -4 15 -25 15 -96 0 -71 -3
-92 -15 -96 -33 -13 -12 -24 45 -24 58 0 80 12 40 23 -18 5 -20 14 -20 85 0
84 14 112 56 112 36 0 44 -20 44 -108 0 -75 -2 -84 -20 -89 -40 -11 -18 -23
40 -23 57 0 78 11 45 24 -12 4 -15 24 -15 86 0 78 -10 116 -34 132 -21 14 -63
8 -90 -13 l-26 -20 0 20 c0 12 -6 20 -12 20 -7 -1 -25 -4 -40 -6z"/>
<path d="M852 1438 c-14 -14 -16 -38 -3 -38 5 0 11 9 14 21 8 30 41 21 45 -13
3 -23 -3 -30 -37 -48 -23 -11 -41 -25 -41 -30 0 -6 27 -10 60 -10 33 0 60 4
60 10 0 6 -21 10 -47 10 l-48 0 40 23 c22 12 41 31 44 42 6 35 -59 61 -87 33z"/>
<path d="M1628 1443 c8 -3 12 -31 12 -91 l0 -87 37 -3 c44 -3 73 20 73 58 0
32 -31 64 -57 57 -17 -4 -17 -5 0 -6 24 -1 39 -44 27 -76 -18 -48 -63 -21 -60
37 1 18 2 52 1 76 -1 37 -4 42 -23 41 -13 0 -17 -3 -10 -6z"/>
<path d="M663 1383 c28 -78 28 -78 42 -34 5 15 4 21 -3 17 -12 -7 -27 48 -17
64 4 6 -4 10 -18 10 l-25 0 21 -57z"/>
<path d="M721 1417 c-13 -34 -14 -47 -2 -28 7 11 14 5 27 -28 19 -47 26 -45
44 14 7 22 17 46 23 53 7 9 4 12 -11 12 -14 0 -19 -5 -16 -18 3 -9 1 -28 -4
-42 -9 -24 -10 -23 -29 20 l-20 45 -12 -28z"/>
<path d="M232 968 c-14 -14 -16 -38 -3 -38 5 0 11 9 14 21 8 30 41 21 45 -13
3 -23 -3 -30 -37 -48 -23 -11 -41 -25 -41 -30 0 -6 27 -10 60 -10 33 0 60 4
60 10 0 6 -21 10 -47 10 l-48 0 40 23 c22 12 41 31 44 42 6 35 -59 61 -87 33z"/>
<path d="M68 963 c17 -7 17 -149 -1 -156 -6 -3 6 -5 28 -5 22 0 34 2 28 5 -7
2 -13 13 -13 24 0 13 7 19 23 19 31 0 57 29 57 63 0 40 -23 55 -82 55 -29 0
-47 -2 -40 -5z m94 -28 c15 -32 -4 -78 -30 -73 -17 3 -29 56 -18 84 9 22 35
16 48 -11z"/>
<path d="M1500 745 c-14 -8 -19 -14 -12 -15 10 0 13 -22 10 -95 -3 -89 -2 -95
17 -95 19 0 20 6 17 77 -5 149 -3 144 -32 128z"/>
<path d="M2670 320 c-8 -5 -12 -10 -8 -10 4 0 -5 -41 -18 -91 -24 -85 -26
-119 -7 -119 4 0 8 13 9 29 2 63 71 130 88 85 8 -22 -18 -78 -45 -98 -13 -9
-17 -16 -10 -16 7 0 28 15 47 34 38 38 45 84 18 107 -14 11 -21 10 -46 -4 -27
-15 -30 -16 -24 -1 8 21 20 94 15 94 -2 0 -11 -5 -19 -10z"/>
<path d="M1720 281 c-11 -22 -28 -42 -37 -44 -16 -4 -16 -5 1 -6 14 -1 17 -7
13 -23 -3 -13 -11 -51 -18 -85 -12 -67 -34 -98 -49 -73 -5 8 -12 11 -16 7 -13
-13 13 -29 35 -22 28 8 46 46 62 123 9 49 17 66 33 72 17 7 18 9 4 9 -22 1
-23 17 -4 54 8 15 11 27 6 27 -5 0 -19 -18 -30 -39z"/>
<path d="M1780 306 c0 -8 5 -16 10 -18 7 -2 5 -16 -5 -40 -8 -21 -15 -51 -15
-68 0 -37 29 -98 61 -125 22 -20 22 -19 -2 13 -21 29 -24 45 -24 117 0 74 3
86 24 109 27 29 18 36 -11 9 -17 -15 -18 -15 -18 0 0 10 -4 17 -10 17 -5 0
-10 -6 -10 -14z"/>
<path d="M1923 210 c22 -60 43 -110 46 -110 4 0 20 34 36 77 32 83 28 85 66
-20 11 -32 24 -55 27 -52 4 4 23 53 43 111 33 96 34 104 17 104 -11 0 -16 -5
-13 -11 8 -12 -13 -97 -26 -105 -5 -3 -16 22 -26 56 -17 58 -19 60 -51 60 -29
0 -32 -2 -22 -19 8 -15 5 -32 -9 -68 -12 -31 -21 -43 -25 -33 -24 62 -35 103
-30 111 3 5 -12 9 -34 9 l-39 0 40 -110z"/>
<path d="M2812 289 c19 -26 23 -43 23 -109 0 -69 -3 -81 -24 -104 -14 -14 -20
-26 -13 -26 34 0 78 108 67 163 -8 36 -44 94 -63 102 -7 2 -2 -9 10 -26z"/>
<path d="M2489 235 c-4 -38 -6 -40 -41 -43 -50 -4 -49 -22 1 -22 39 0 40 -1
44 -37 l4 -38 1 38 c2 36 3 37 42 37 51 0 53 18 3 22 -36 3 -38 5 -44 43 l-5
40 -5 -40z"/>
<path d="M2286 253 c-4 -4 -21 -6 -39 -5 l-32 3 0 -110 0 -111 40 0 c30 0 36
3 27 12 -7 7 -12 24 -12 38 0 24 3 26 34 22 26 -3 37 1 50 19 23 33 21 94 -4
119 -20 20 -50 26 -64 13z m35 -40 c16 -40 0 -98 -26 -98 -17 0 -20 8 -23 49
-2 27 -1 55 2 62 9 23 36 16 47 -13z"/>
<path d="M1234 216 c-38 -38 -52 -79 -34 -101 16 -19 41 -19 66 1 18 14 18 15
-5 4 -35 -18 -47 0 -33 48 14 45 45 77 67 69 18 -8 19 -33 2 -67 -25 -51 2
-93 34 -52 13 15 12 16 -3 3 -22 -16 -22 -11 -3 59 8 30 15 57 15 60 0 3 -17
6 -37 7 -29 1 -43 -5 -69 -31z"/>
<path d="M1390 220 c0 -6 33 -10 80 -10 47 0 80 4 80 10 0 6 -33 10 -80 10
-47 0 -80 -4 -80 -10z"/>
<path d="M1375 150 c-4 -6 25 -10 79 -10 51 0 86 4 86 10 0 6 -33 10 -79 10
-44 0 -83 -4 -86 -10z"/>
</g>
</svg>
